<svg xmlns="http://www.w3.org/2000/svg" xml:space="preserve" width="100%" height="100%" version="1.1" style="shape-rendering:geometricPrecision; text-rendering:geometricPrecision; image-rendering:optimizeQuality; fill-rule:evenodd; clip-rule:evenodd"
viewBox="0 0 1786 931"
 xmlns:xlink="http://www.w3.org/1999/xlink">
 <g id="Camada_x0020_1">
  <metadata id="CorelCorpID_0Corel-Layer"/>
  <g id="_337007632">
   <g>
    <rect class="svgNormal" width="576" height="165"/>
    <rect class="svgNormal" x="1210" width="576" height="165"/>
    <rect class="svgNormal" x="605" width="576" height="165"/>
   </g>
   <g>
    <rect class="svgNormal" x="909" y="191" width="576" height="165"/>
    <rect class="svgNormal" x="300" y="191" width="576" height="165"/>
    <rect class="svgNormal" y="191" width="267" height="165"/>
    <rect class="svgNormal" x="1519" y="191" width="267" height="165"/>
   </g>
   <g>
    <rect class="svgNormal" y="383" width="576" height="165"/>
    <rect class="svgNormal" x="1210" y="383" width="576" height="165"/>
    <rect class="svgNormal" x="605" y="383" width="576" height="165"/>
   </g>
   <g>
    <rect class="svgNormal" x="909" y="574" width="576" height="165"/>
    <rect class="svgNormal" x="300" y="574" width="576" height="165"/>
    <rect class="svgNormal" y="574" width="267" height="165"/>
    <rect class="svgNormal" x="1519" y="574" width="267" height="165"/>
   </g>
   <g>
    <rect class="svgNormal" y="765" width="576" height="165"/>
    <rect class="svgNormal" x="1210" y="765" width="576" height="165"/>
    <rect class="svgNormal" x="605" y="765" width="576" height="165"/>
   </g>
  </g>
 </g>
</svg>
