<svg xmlns="http://www.w3.org/2000/svg" xml:space="preserve" width="100%" height="100%" version="1.1" style="shape-rendering:geometricPrecision; text-rendering:geometricPrecision; image-rendering:optimizeQuality; fill-rule:evenodd; clip-rule:evenodd"
viewBox="0 0 1768 1103"
 xmlns:xlink="http://www.w3.org/1999/xlink">
 <g id="Camada_x0020_1">
  <metadata id="CorelCorpID_0Corel-Layer"/>
  <rect class="svgNormal" width="1768" height="1103" rx="68" ry="68"/>
  <polygon class="fil1" points="151,232 354,330 354,281 765,281 1003,281 1414,281 1414,330 1617,232 1414,134 1414,183 1003,183 1003,183 354,183 354,134 "/>
  <rect class="fil1" x="146" y="459" width="133" height="109"/>
  <rect class="fil1" x="313" y="459" width="133" height="109"/>
  <rect class="fil1" x="481" y="459" width="133" height="109"/>
  <rect class="fil1" x="649" y="459" width="133" height="109"/>
  <rect class="fil1" x="1152" y="459" width="133" height="109"/>
  <rect class="fil1" x="984" y="459" width="133" height="109"/>
  <rect class="fil1" x="817" y="459" width="133" height="109"/>
  <rect class="fil1" x="1320" y="459" width="133" height="109"/>
  <rect class="fil1" x="1488" y="459" width="133" height="109"/>
 </g>
</svg>
