<svg xmlns="http://www.w3.org/2000/svg" xml:space="preserve" width="100%" height="100%" version="1.1" style="shape-rendering:geometricPrecision; text-rendering:geometricPrecision; image-rendering:optimizeQuality; fill-rule:evenodd; clip-rule:evenodd"
viewBox="0 0 1571 1649"
 xmlns:xlink="http://www.w3.org/1999/xlink">
 <g id="Camada_x0020_1">
  <metadata id="CorelCorpID_0Corel-Layer"/>
  <g id="_277553824">
   <polygon class="svgNormal" points="785,0 1178,206 1571,412 1571,824 1571,1237 1178,1443 785,1649 393,1443 0,1237 0,824 0,412 393,206 "/>
   <polygon class="fil1" points="82,824 235,940 235,882 562,882 562,767 235,767 235,709 "/>
   <polygon class="fil1" points="1486,824 1334,940 1334,882 1006,882 1006,767 1334,767 1334,709 "/>
   <polygon class="fil1" points="785,1511 901,1358 843,1358 843,1031 728,1031 728,1358 670,1358 "/>
   <polygon class="fil1" points="785,152 901,304 843,304 843,632 728,632 728,304 670,304 "/>
   <polygon class="fil1" points="785,360 1025,774 1264,1188 785,1188 307,1188 546,774 "/>
   <polygon class="svgNormal" points="785,645 872,759 829,759 829,1004 742,1004 742,759 699,759 "/>
  </g>
 </g>
</svg>
