<svg xmlns="http://www.w3.org/2000/svg" xml:space="preserve" width="100%" height="100%" version="1.1" style="shape-rendering:geometricPrecision; text-rendering:geometricPrecision; image-rendering:optimizeQuality; fill-rule:evenodd; clip-rule:evenodd"
viewBox="0 0 1571 1649"
 xmlns:xlink="http://www.w3.org/1999/xlink">
 <g id="Camada_x0020_1">
  <metadata id="CorelCorpID_0Corel-Layer"/>
  <g id="_381365456">
   <polygon class="svgNormal" points="785,0 1178,206 1571,412 1571,824 1571,1237 1178,1443 785,1649 393,1443 0,1237 0,824 0,412 393,206 "/>
   <polygon class="fil1" points="82,824 235,940 235,882 562,882 562,767 235,767 235,709 "/>
   <polygon class="fil1" points="1486,824 1334,940 1334,882 1006,882 1006,767 1334,767 1334,709 "/>
   <polygon class="fil1" points="785,1511 901,1358 843,1358 843,1031 727,1031 727,1358 670,1358 "/>
   <polygon class="fil1" points="785,152 901,304 843,304 843,632 727,632 727,304 670,304 "/>
  </g>
  <g id="_381383312">
   <ellipse class="fil2" cx="785" cy="824" rx="340" ry="327"/>
   <path class="fil1" d="M926 741c37,19 61,47 64,82 3,30 -10,58 -35,82l3 6 44 85 -76 -38 -30 -15c-23,10 -50,17 -78,20 -69,7 -132,-12 -168,-46l0 0 26 -20c25,5 52,7 81,4 102,-10 180,-73 173,-141 -1,-6 -2,-13 -4,-19z"/>
   <path class="fil1" d="M738 642c-103,0 -186,55 -186,123 0,30 16,57 43,78l-2 6 -35 89 72 -45 28 -18c24,8 51,12 80,12 103,0 186,-55 186,-123 0,-68 -83,-123 -186,-123z"/>
  </g>
 </g>
</svg>
