<svg xmlns="http://www.w3.org/2000/svg" xml:space="preserve" width="100%" height="100%" version="1.1" style="shape-rendering:geometricPrecision; text-rendering:geometricPrecision; image-rendering:optimizeQuality; fill-rule:evenodd; clip-rule:evenodd"
viewBox="0 0 1848 1848"
 xmlns:xlink="http://www.w3.org/1999/xlink">
 <g id="Camada_x0020_1">
  <metadata id="CorelCorpID_0Corel-Layer"/>
  <circle class="svgNormal" cx="924" cy="924" r="924"/>
  <g id="_337010296">
   <polygon class="fil1" points="882,884 846,621 790,678 468,356 354,470 676,791 619,848 "/>
   <polygon class="fil1" points="966,964 1002,1228 1059,1171 1380,1492 1494,1379 1173,1057 1229,1000 "/>
   <polygon class="fil1" points="396,1451 659,1415 602,1358 924,1037 810,923 488,1244 432,1188 "/>
   <polygon class="fil1" points="1449,388 1186,424 1243,481 921,802 1035,916 1357,595 1414,651 "/>
  </g>
 </g>
</svg>
