<svg xmlns="http://www.w3.org/2000/svg" xml:space="preserve" width="100%" height="100%" version="1.1" style="shape-rendering:geometricPrecision; text-rendering:geometricPrecision; image-rendering:optimizeQuality; fill-rule:evenodd; clip-rule:evenodd"
viewBox="0 0 1848 1848"
 xmlns:xlink="http://www.w3.org/1999/xlink">
 <g id="Camada_x0020_1">
  <metadata id="CorelCorpID_0Corel-Layer"/>
  <circle class="svgNormal" cx="924" cy="924" r="924"/>
  <g id="_381382016">
   <polygon class="fil1" points="882,884 846,621 790,678 468,356 354,470 676,791 619,848 "/>
   <polygon class="fil1" points="966,964 1002,1228 1059,1171 1380,1492 1494,1379 1173,1057 1229,1000 "/>
   <polygon class="fil1" points="396,1451 659,1415 602,1358 924,1037 810,923 488,1244 432,1188 "/>
   <polygon class="fil1" points="1449,388 1186,424 1243,481 921,802 1035,916 1357,595 1414,651 "/>
  </g>
  <g id="_381383384">
   <ellipse class="fil2" cx="924" cy="924" rx="340" ry="327"/>
   <path class="fil1" d="M1065 840c37,19 61,47 64,82 3,30 -10,58 -35,82l3 6 44 85 -76 -38 -30 -15c-23,10 -50,17 -78,20 -69,7 -132,-12 -168,-46l0 0 26 -20c25,5 52,7 81,4 102,-10 180,-73 173,-141 -1,-6 -2,-13 -4,-19z"/>
   <path class="fil1" d="M877 742c-103,0 -186,55 -186,123 0,30 16,57 43,78l-2 6 -35 89 72 -45 28 -18c24,8 51,12 80,12 103,0 186,-55 186,-123 0,-68 -83,-123 -186,-123z"/>
  </g>
 </g>
</svg>
