<svg xmlns="http://www.w3.org/2000/svg" xml:space="preserve" width="100%" height="100%" version="1.1" style="shape-rendering:geometricPrecision; text-rendering:geometricPrecision; image-rendering:optimizeQuality; fill-rule:evenodd; clip-rule:evenodd"
viewBox="0 0 1768 1103"
 xmlns:xlink="http://www.w3.org/1999/xlink">
 <g id="Camada_x0020_1">
  <metadata id="CorelCorpID_0Corel-Layer"/>
  <g id="_337001320">
   <polygon class="fil1" points="205,620 422,694 422,657 887,657 887,583 422,583 422,546 "/>
   <polygon class="fil1" points="205,329 422,403 422,366 887,366 887,292 422,292 422,255 "/>
   <polygon class="fil1" points="1397,470 1181,544 1181,507 715,507 715,433 1181,433 1181,396 "/>
   <polygon class="fil1" points="1397,179 1181,253 1181,216 715,216 715,142 1181,142 1181,105 "/>
  </g>
  <g id="_337009384">
   <polygon class="fil1" points="205,620 422,694 422,657 887,657 887,583 422,583 422,546 "/>
   <polygon class="fil1" points="205,329 422,403 422,366 887,366 887,292 422,292 422,255 "/>
   <polygon class="fil1" points="1397,470 1181,544 1181,507 715,507 715,433 1181,433 1181,396 "/>
   <polygon class="fil1" points="1397,179 1181,253 1181,216 715,216 715,142 1181,142 1181,105 "/>
  </g>
  <rect class="svgNormal" width="1768" height="1103" rx="68" ry="68"/>
  <g id="_337011232">
   <polygon class="fil1" points="288,772 505,846 505,809 970,809 970,735 505,735 505,697 "/>
   <polygon class="fil1" points="288,480 505,555 505,518 970,518 970,443 505,443 505,406 "/>
   <polygon class="fil1" points="1480,622 1264,696 1264,659 798,659 798,585 1264,585 1264,548 "/>
   <polygon class="fil1" points="1480,331 1264,405 1264,368 798,368 798,294 1264,294 1264,257 "/>
  </g>
 </g>
</svg>
