<?xml version="1.0" encoding="UTF-8"?>
<!DOCTYPE svg PUBLIC "-//W3C//DTD SVG 1.1//EN" "http://www.w3.org/Graphics/SVG/1.1/DTD/svg11.dtd">
<!-- Creator: CorelDRAW X6 -->
<?xml-stylesheet href="switch_comment.css" type="text/css"?>
<svg xmlns="http://www.w3.org/2000/svg" xml:space="preserve" width="100%" height="100%" version="1.1" style="shape-rendering:geometricPrecision; text-rendering:geometricPrecision; image-rendering:optimizeQuality; fill-rule:evenodd; clip-rule:evenodd"
viewBox="0 0 1768 1103"
 xmlns:xlink="http://www.w3.org/1999/xlink">
 <g id="Camada_x0020_1">
  <metadata id="CorelCorpID_0Corel-Layer"/>
  <rect class="fil0" width="1768" height="1103" rx="68" ry="68"/>
  <polygon class="fil1" points="151,232 354,330 354,281 765,281 1003,281 1414,281 1414,330 1617,232 1414,134 1414,183 1003,183 1003,183 354,183 354,134 "/>
  <rect class="fil1" x="146" y="459" width="133" height="109"/>
  <rect class="fil1" x="313" y="459" width="133" height="109"/>
  <rect class="fil1" x="481" y="459" width="133" height="109"/>
  <rect class="fil1" x="649" y="459" width="133" height="109"/>
  <rect class="fil1" x="1152" y="459" width="133" height="109"/>
  <rect class="fil1" x="984" y="459" width="133" height="109"/>
  <rect class="fil1" x="817" y="459" width="133" height="109"/>
  <rect class="fil1" x="1320" y="459" width="133" height="109"/>
  <rect class="fil1" x="1488" y="459" width="133" height="109"/>
  <g id="_381381344">
   <ellipse class="fil2" cx="884" cy="551" rx="340" ry="327"/>
   <path class="fil1" d="M1025 467c37,19 61,47 64,82 3,30 -10,58 -35,82l3 6 44 85 -76 -38 -30 -15c-23,10 -50,17 -78,20 -69,7 -132,-12 -168,-46l0 0 26 -20c25,5 52,7 81,4 102,-10 180,-73 173,-141 -1,-6 -2,-13 -4,-19z"/>
   <path class="fil1" d="M837 369c-103,0 -186,55 -186,123 0,30 16,57 43,78l-2 6 -35 89 72 -45 28 -18c24,8 51,12 80,12 103,0 186,-55 186,-123 0,-68 -83,-123 -186,-123z"/>
  </g>
 </g>
</svg>
