<?xml version="1.0" encoding="UTF-8"?>
<!DOCTYPE svg PUBLIC "-//W3C//DTD SVG 1.1//EN" "http://www.w3.org/Graphics/SVG/1.1/DTD/svg11.dtd">
<!-- Creator: CorelDRAW X6 -->
<?xml-stylesheet href="trap_comment.css" type="text/css"?>
<svg xmlns="http://www.w3.org/2000/svg" xml:space="preserve" width="100%" height="100%" version="1.1" style="shape-rendering:geometricPrecision; text-rendering:geometricPrecision; image-rendering:optimizeQuality; fill-rule:evenodd; clip-rule:evenodd"
viewBox="0 0 1633 1474"
 xmlns:xlink="http://www.w3.org/1999/xlink">
 <g id="Camada_x0020_1">
  <metadata id="CorelCorpID_0Corel-Layer"/>
  <g id="_381364016">
   <polygon class="fil0" points="816,0 1225,707 1633,1414 816,1414 0,1414 408,707 "/>
   <polygon class="fil1" points="816,501 965,696 891,696 891,1116 742,1116 742,696 668,696 "/>
  </g>
  <g id="_381363008">
   <ellipse class="fil2" cx="816" cy="1147" rx="340" ry="327"/>
   <path class="fil1" d="M957 1063c37,19 61,47 64,82 3,30 -10,58 -35,82l3 6 44 85 -76 -38 -30 -15c-23,10 -50,17 -78,20 -69,7 -132,-12 -168,-46l0 0 26 -20c25,5 52,7 81,4 102,-10 180,-73 173,-141 -1,-6 -2,-13 -4,-19z"/>
   <path class="fil1" d="M769 965c-103,0 -186,55 -186,123 0,30 16,57 43,78l-2 6 -35 89 72 -45 28 -18c24,8 51,12 80,12 103,0 186,-55 186,-123 0,-68 -83,-123 -186,-123z"/>
  </g>
 </g>
</svg>
